<svg width="134" height="108" viewBox="0 0 134 108" fill="none" xmlns="http://www.w3.org/2000/svg">
<g opacity="0.3">
<path fill-rule="evenodd" clip-rule="evenodd" d="M11.2921 0H122.708C128.944 0 134 5.0699 134 11.3239V96.631C134 102.885 128.944 107.955 122.708 107.955H11.2921C5.05566 107.955 0 102.885 0 96.631V11.3239C0 5.0699 5.05566 0 11.2921 0ZM14.3036 7.54932C10.5617 7.54932 7.52832 10.5913 7.52832 14.3437V93.6113C7.52832 97.3637 10.5617 100.406 14.3036 100.406H119.697C123.439 100.406 126.472 97.3637 126.472 93.6113V14.3437C126.472 10.5913 123.439 7.54932 119.697 7.54932H14.3036Z" fill="white"/>
<path fill-rule="evenodd" clip-rule="evenodd" d="M51.3312 65.3254L40.1805 54.6934L18.8203 75.5844V83.9445C18.8203 86.7817 21.2777 89.0818 24.3091 89.0818H109.691C112.722 89.0818 115.18 86.7817 115.18 83.9445V57.521L87.0289 29.958L51.3312 65.3254Z" fill="white"/>
<path fill-rule="evenodd" clip-rule="evenodd" d="M31.6181 44.5409C38.6861 44.5409 44.4158 38.795 44.4158 31.7071C44.4158 24.6192 38.6861 18.8733 31.6181 18.8733C24.5501 18.8733 18.8203 24.6192 18.8203 31.7071C18.8203 38.795 24.5501 44.5409 31.6181 44.5409Z" fill="white"/>
</g>
</svg>
