<svg width="36" height="36" viewBox="0 0 36 36" fill="none" xmlns="http://www.w3.org/2000/svg">
<path fill-rule="evenodd" clip-rule="evenodd" d="M0 18C0 8.05887 8.05887 0 18 0C27.9411 0 36 8.05887 36 18C36 27.9411 27.9411 36 18 36C8.05887 36 0 27.9411 0 18Z" fill="#0077B5"/>
<path fill-rule="evenodd" clip-rule="evenodd" d="M12.9902 11.117C12.9629 9.91531 12.1035 9 10.709 9C9.3125 9 8.40039 9.91531 8.40039 11.117C8.40039 12.2939 9.28516 13.2355 10.6543 13.2355H10.6816C12.1035 13.2355 12.9902 12.2939 12.9902 11.117ZM12.7227 14.9084H8.64258V27.1647H12.7227V14.9084ZM22.7344 14.6206C25.4199 14.6206 27.4316 16.3727 27.4316 20.1373V27.1647H23.3516V20.6076C23.3516 18.9605 22.7617 17.8367 21.2852 17.8367C20.1582 17.8367 19.4883 18.5943 19.1934 19.3261C19.084 19.5884 19.0586 19.9538 19.0586 20.3201V27.165H14.9785C14.9785 27.165 15.0332 16.0588 14.9785 14.9087H19.0586V16.6447C19.5996 15.8102 20.5684 14.6206 22.7344 14.6206Z" fill="white"/>
</svg>
