<svg width="100" height="100" viewBox="0 0 100 100" fill="none" xmlns="http://www.w3.org/2000/svg">
<path fill-rule="evenodd" clip-rule="evenodd" d="M50 100C77.6142 100 100 77.6142 100 50C100 22.3858 77.6142 0 50 0C22.3858 0 0 22.3858 0 50C0 77.6142 22.3858 100 50 100Z" fill="#EC407A"/>
<path fill-rule="evenodd" clip-rule="evenodd" d="M84.2297 86.4466C75.2841 94.8514 63.2434 100 50.0002 100C36.9158 100 25.0052 94.9741 16.0938 86.7475C16.1736 86.5075 16.2559 86.2666 16.3405 86.0252C17.9692 81.3825 18.3539 77.9676 26.8613 74.6364C35.3687 71.3053 62.0522 71.2264 71.8355 74.2631C81.6188 77.2997 82.6319 82.0559 84.0084 85.8088C84.0844 86.0161 84.1582 86.2291 84.2297 86.4466V86.4466Z" fill="#FFCC80"/>
<path fill-rule="evenodd" clip-rule="evenodd" d="M70.5705 95.5856C64.2963 98.4214 57.332 100 49.9991 100C42.6396 100 35.6514 98.41 29.3594 95.5547L34.3681 72.9576C43.5076 71.7323 56.8456 71.7653 65.8272 73.0232L70.5705 95.5856Z" fill="#209791"/>
<path fill-rule="evenodd" clip-rule="evenodd" d="M35.3986 50.0729C35.3986 50.0729 21.6254 58.0114 28.5353 71.3576C35.4452 84.7039 37.4928 86.7748 33.101 94.428C43.6214 90.5934 43.4155 78.8328 43.4155 78.8328L43.396 61.2206L35.3986 50.0729Z" fill="#3E2723"/>
<path fill-rule="evenodd" clip-rule="evenodd" d="M32.2251 36.2634C34.3042 26.8172 41.474 19.8529 49.9993 19.8529C58.5513 19.8529 65.7392 26.8608 67.7929 36.3521C68.0443 36.2382 68.3323 36.1914 68.6633 36.2217C70.657 36.4042 70.6313 39.0375 70.3482 42.2739C70.0687 45.4678 68.8833 47.981 67.6858 47.9444C66.1056 54.6284 61.9652 60.0206 56.617 62.498V73.5317C56.617 77.1852 53.6549 80.1471 49.9993 80.1471C46.3445 80.1471 43.3817 77.1902 43.3817 73.5317V62.498C38.0233 60.0159 33.8774 54.6081 32.3039 47.9066C31.2075 47.5811 30.1812 45.2163 29.9238 42.2739C29.6406 39.0375 29.6149 36.4042 31.6086 36.2217C31.8332 36.2011 32.0381 36.2161 32.2251 36.2634Z" fill="#FFCC80"/>
<path fill-rule="evenodd" clip-rule="evenodd" d="M44.1172 53.8805C44.1172 53.8805 46.8296 51.4845 50.131 52.4835C52.4504 51.948 54.2616 52.08 55.8819 53.8404C54.9517 55.135 54.0515 56.5446 50.0788 56.6163C46.1062 56.688 44.1172 53.8805 44.1172 53.8805Z" fill="#EC407A"/>
<path fill-rule="evenodd" clip-rule="evenodd" d="M48.4636 40.4388C48.4834 40.4404 48.5033 40.4412 48.5234 40.4412H51.4782C51.4983 40.4412 51.5182 40.4403 51.538 40.4387C51.9953 42.9342 54.7541 44.8529 58.089 44.8529C61.7439 44.8529 64.7067 42.5485 64.7067 39.7059C64.7067 36.8632 61.7439 34.5588 58.089 34.5588C54.7541 34.5588 51.9953 36.4775 51.538 38.973C51.5182 38.9714 51.4983 38.9706 51.4782 38.9706H48.5234C48.5033 38.9706 48.4834 38.9714 48.4637 38.9731C48.0063 36.4775 45.2475 34.5588 41.9126 34.5588C38.2577 34.5588 35.2949 36.8632 35.2949 39.7059C35.2949 42.5485 38.2577 44.8529 41.9126 44.8529C45.2475 44.8529 48.0063 42.9343 48.4636 40.4388Z" fill="#3E2723"/>
<path fill-rule="evenodd" clip-rule="evenodd" d="M58.0885 43.3824C60.9311 43.3824 63.2355 41.7363 63.2355 39.7059C63.2355 37.6754 60.9311 36.0294 58.0885 36.0294C55.2458 36.0294 52.9414 37.6754 52.9414 39.7059C52.9414 41.7363 55.2458 43.3824 58.0885 43.3824Z" fill="#FFCC80"/>
<path fill-rule="evenodd" clip-rule="evenodd" d="M41.9127 43.3824C44.7553 43.3824 47.0597 41.7363 47.0597 39.7059C47.0597 37.6754 44.7553 36.0294 41.9127 36.0294C39.07 36.0294 36.7656 37.6754 36.7656 39.7059C36.7656 41.7363 39.07 43.3824 41.9127 43.3824Z" fill="#FFCC80"/>
<path fill-rule="evenodd" clip-rule="evenodd" d="M30.8487 36.4229C30.8487 36.4229 28.7574 13.7189 49.7495 14.1774C70.7417 14.6359 68.9697 36.3371 68.9697 36.3371C68.9697 36.3371 66.3728 35.5375 66.054 40.4936C65.2898 39.9951 64.1242 38.8293 64.1619 37.9177C63.4212 38.0096 47.5131 38.8855 46.9667 29.0685C46.3423 31.7808 47.7006 34.8624 35.9574 37.8818C35.6414 39.2934 34.7755 39.9996 34.1294 40.357C33.9915 35.427 30.8487 36.4229 30.8487 36.4229Z" fill="#3E2723"/>
</svg>
