<svg width="120" height="97" viewBox="0 0 120 97" fill="none" xmlns="http://www.w3.org/2000/svg">
<g opacity="0.3">
<path fill-rule="evenodd" clip-rule="evenodd" d="M10.1124 0H109.888C115.473 0 120 4.54021 120 10.1408V86.5352C120 92.1358 115.473 96.6761 109.888 96.6761H10.1124C4.52746 96.6761 0 92.1358 0 86.5352V10.1408C0 4.54021 4.52746 0 10.1124 0ZM12.809 6.76056C9.45805 6.76056 6.74157 9.48469 6.74157 12.8451V83.831C6.74157 87.1914 9.45805 89.9155 12.809 89.9155H107.191C110.542 89.9155 113.258 87.1914 113.258 83.831V12.8451C113.258 9.48469 110.542 6.76056 107.191 6.76056H12.809Z" fill="white"/>
<path fill-rule="evenodd" clip-rule="evenodd" d="M45.9681 58.5003L35.9824 48.9791L16.8539 67.6875V75.1741C16.8539 77.7149 19.0546 79.7746 21.7693 79.7746H98.2306C100.945 79.7746 103.146 77.7149 103.146 75.1741V51.5113L77.9362 26.828L45.9681 58.5003Z" fill="white"/>
<path fill-rule="evenodd" clip-rule="evenodd" d="M28.3146 39.8873C34.6441 39.8873 39.7752 34.7417 39.7752 28.3943C39.7752 22.0469 34.6441 16.9014 28.3146 16.9014C21.985 16.9014 16.8539 22.0469 16.8539 28.3943C16.8539 34.7417 21.985 39.8873 28.3146 39.8873Z" fill="white"/>
</g>
</svg>
