<svg width="100" height="100" viewBox="0 0 100 100" fill="none" xmlns="http://www.w3.org/2000/svg">
<path fill-rule="evenodd" clip-rule="evenodd" d="M50 100C77.6142 100 100 77.6142 100 50C100 22.3858 77.6142 0 50 0C22.3858 0 0 22.3858 0 50C0 77.6142 22.3858 100 50 100Z" fill="#9CCC65"/>
<path fill-rule="evenodd" clip-rule="evenodd" d="M84.408 86.278C75.4443 94.7825 63.3314 100 50 100C36.8252 100 24.8405 94.9044 15.9093 86.5765C16.0454 86.1512 16.189 85.7212 16.3403 85.2899C17.9689 80.6471 18.3537 77.2323 26.8611 73.9011C35.3684 70.5699 62.052 70.4911 71.8352 73.5278C81.6185 76.5644 82.6316 81.3206 84.0082 85.0735C84.1491 85.4579 84.2824 85.8621 84.408 86.278L84.408 86.278Z" fill="#795548"/>
<path fill-rule="evenodd" clip-rule="evenodd" d="M70.056 95.815C63.9166 98.5064 57.1327 100 50 100C42.3816 100 35.1613 98.2961 28.6991 95.2487L33.785 72.3031C42.6901 71.0308 55.929 71.0034 65.0889 72.1883L70.056 95.815Z" fill="#209791"/>
<path fill-rule="evenodd" clip-rule="evenodd" d="M40.5122 71.6226C46.5782 71.2154 53.4523 71.225 59.4904 71.6449C59.5356 72.0217 59.5588 72.4052 59.5588 72.7941C59.5588 78.0733 55.2792 82.3529 50 82.3529C44.7208 82.3529 40.4412 78.0733 40.4412 72.7941C40.4412 72.3975 40.4653 72.0065 40.5122 71.6226L40.5122 71.6226Z" fill="#795548"/>
<path fill-rule="evenodd" clip-rule="evenodd" d="M51.5184 30.05C53.3658 33.315 56.7286 35.6093 60.6515 35.9775C61.1199 37.8326 62.0289 39.5123 63.2608 40.8989C62.2346 42.3153 61.5162 43.9694 61.2041 45.763C55.6746 46.7253 51.4706 51.5482 51.4706 57.353C51.4706 63.8504 56.7378 69.1177 63.2353 69.1177C69.0401 69.1177 73.863 64.9136 74.8253 59.3842C80.3548 58.4218 84.5588 53.5989 84.5588 47.7941C84.5588 44.7966 83.4378 42.061 81.5921 39.9835C82.9959 38.046 83.8235 35.6638 83.8235 33.0883C83.8235 26.9662 79.1474 21.9364 73.172 21.3755C71.8842 16.275 67.2653 12.5 61.7647 12.5C61.2502 12.5 60.7434 12.5331 60.2463 12.5971C58.2263 9.02716 54.3945 6.61768 50 6.61768C45.4312 6.61768 41.4707 9.22201 39.522 13.0271C38.4185 12.6846 37.2455 12.5 36.0294 12.5C29.5319 12.5 24.2647 17.7673 24.2647 24.2647C24.2647 24.6333 24.2816 24.998 24.3148 25.3579C19.2152 26.6464 15.4412 31.2648 15.4412 36.7647C15.4412 39.573 16.4251 42.1515 18.0671 44.1742C17.3266 45.7147 16.9118 47.4412 16.9118 49.2647C16.9118 54.0325 19.7479 58.1379 23.8251 59.9858C25.0207 65.2157 29.7017 69.1177 35.2941 69.1177C41.7916 69.1177 47.0588 63.8504 47.0588 57.353C47.0588 52.5852 44.2227 48.4798 40.1454 46.6319C39.7385 44.8521 38.928 43.2261 37.8152 41.8553C38.5557 40.3148 38.9706 38.5882 38.9706 36.7647C38.9706 36.3961 38.9536 36.0315 38.9205 35.6716C42.2318 34.8349 44.9842 32.5943 46.5074 29.62C47.6108 29.9626 48.7839 30.1471 50 30.1471C50.5145 30.1471 51.0213 30.1141 51.5184 30.05Z" fill="#3E2723"/>
<path fill-rule="evenodd" clip-rule="evenodd" d="M32.2259 35.5281C34.305 26.0819 41.4748 19.1177 50.0001 19.1177C58.552 19.1177 65.74 26.1255 67.7936 35.6168C68.045 35.5029 68.3331 35.4561 68.6641 35.4864C70.6577 35.6689 70.632 38.3023 70.3489 41.5386C70.0695 44.7325 68.8841 47.2458 67.6865 47.2092C66.1064 53.8932 61.966 59.2853 56.6177 61.7627V72.7964C56.6177 76.45 53.6557 79.4118 50.0001 79.4118C46.3452 79.4118 43.3824 76.4549 43.3824 72.7964V61.7627C38.0241 59.2807 33.8781 53.8728 32.3047 47.1713C31.2083 46.8458 30.1819 44.4811 29.9245 41.5386C29.6414 38.3023 29.6157 35.6689 31.6093 35.4864C31.834 35.4659 32.0388 35.4808 32.2259 35.5281Z" fill="#795548"/>
<path fill-rule="evenodd" clip-rule="evenodd" d="M44.1177 53.1453C44.1177 53.1453 46.8301 50.7493 50.1315 51.7483C52.4509 51.2128 54.2621 51.3448 55.8824 53.1052C54.9522 54.3998 54.052 55.8094 50.0793 55.8811C46.1066 55.9528 44.1177 53.1453 44.1177 53.1453Z" fill="#EC407A"/>
<path fill-rule="evenodd" clip-rule="evenodd" d="M30.9401 35.4877C30.9401 35.4877 28.8487 12.7837 49.8408 13.2422C70.833 13.7007 69.061 35.4019 69.061 35.4019C69.061 35.4019 66.4641 34.6024 66.1453 39.5584C65.3811 39.0599 64.2155 37.8941 64.2532 36.9825C63.5125 37.0745 47.6044 37.9503 47.058 28.1333C46.4336 30.8456 47.7919 33.9272 36.0487 36.9466C35.7328 38.3582 34.8668 39.0644 34.2207 39.4218C34.0828 34.4918 30.9401 35.4877 30.9401 35.4877Z" fill="#3E2723"/>
</svg>
