<svg width="100" height="100" viewBox="0 0 100 100" fill="none" xmlns="http://www.w3.org/2000/svg">
<path fill-rule="evenodd" clip-rule="evenodd" d="M50 100C77.6142 100 100 77.6142 100 50C100 22.3858 77.6142 0 50 0C22.3858 0 0 22.3858 0 50C0 77.6142 22.3858 100 50 100Z" fill="#EC407A"/>
<path fill-rule="evenodd" clip-rule="evenodd" d="M84.2295 86.4466C75.2838 94.8514 63.2432 100 50 100C36.9156 100 25.005 94.9741 16.0935 86.7475C16.1734 86.5075 16.2556 86.2666 16.3403 86.0253C17.9689 81.3825 18.3537 77.9676 26.8611 74.6365C35.3685 71.3053 62.052 71.2265 71.8353 74.2631C81.6185 77.2997 82.6316 82.0559 84.0082 85.8089C84.0842 86.0161 84.158 86.2291 84.2295 86.4466V86.4466Z" fill="#FFCC80"/>
<path fill-rule="evenodd" clip-rule="evenodd" d="M70.5714 95.5856C64.2971 98.4215 57.3329 100 50 100C42.6404 100 35.6522 98.41 29.3602 95.5547L34.3689 72.9576C43.5084 71.7323 56.8465 71.7653 65.8281 73.0232L70.5714 95.5856Z" fill="#209791"/>
<path fill-rule="evenodd" clip-rule="evenodd" d="M35.3982 50.073C35.3982 50.073 21.6251 58.0115 28.535 71.3578C35.4449 84.704 37.4924 86.7749 33.1006 94.4282C43.6211 90.5935 43.4152 78.8329 43.4152 78.8329L43.3956 61.2207L35.3982 50.073Z" fill="#3E2723"/>
<path fill-rule="evenodd" clip-rule="evenodd" d="M32.2259 36.2635C34.305 26.8173 41.4748 19.853 50.0001 19.853C58.552 19.853 65.74 26.8609 67.7936 36.3522C68.045 36.2383 68.3331 36.1915 68.6641 36.2218C70.6577 36.4043 70.632 39.0376 70.3489 42.274C70.0695 45.4679 68.8841 47.9811 67.6865 47.9445C66.1064 54.6285 61.966 60.0207 56.6177 62.498V73.5317C56.6177 77.1853 53.6557 80.1471 50.0001 80.1471C46.3452 80.1471 43.3824 77.1903 43.3824 73.5317V62.498C38.0241 60.016 33.8781 54.6082 32.3047 47.9067C31.2083 47.5811 30.1819 45.2164 29.9245 42.274C29.6414 39.0376 29.6157 36.4043 31.6093 36.2218C31.834 36.2012 32.0388 36.2161 32.2259 36.2635Z" fill="#FFCC80"/>
<path fill-rule="evenodd" clip-rule="evenodd" d="M44.1177 53.8804C44.1177 53.8804 46.8301 51.4844 50.1315 52.4834C52.4509 51.9479 54.2621 52.0799 55.8824 53.8403C54.9522 55.1349 54.052 56.5445 50.0793 56.6162C46.1066 56.6879 44.1177 53.8804 44.1177 53.8804Z" fill="#EC407A"/>
<path fill-rule="evenodd" clip-rule="evenodd" d="M48.4628 40.4388C48.4825 40.4404 48.5025 40.4412 48.5226 40.4412H51.4773C51.4974 40.4412 51.5174 40.4403 51.5371 40.4387C51.9944 42.9342 54.7532 44.853 58.0882 44.853C61.743 44.853 64.7058 42.5485 64.7058 39.7059C64.7058 36.8633 61.743 34.5588 58.0882 34.5588C54.7533 34.5588 51.9945 36.4775 51.5371 38.973C51.5174 38.9714 51.4975 38.9706 51.4773 38.9706H48.5226C48.5025 38.9706 48.4825 38.9714 48.4628 38.9731C48.0055 36.4776 45.2467 34.5588 41.9117 34.5588C38.2569 34.5588 35.2941 36.8633 35.2941 39.7059C35.2941 42.5485 38.2569 44.853 41.9117 44.853C45.2466 44.853 48.0054 42.9343 48.4628 40.4388Z" fill="#3E2723"/>
<path fill-rule="evenodd" clip-rule="evenodd" d="M58.0882 43.3822C60.9309 43.3822 63.2353 41.7362 63.2353 39.7058C63.2353 37.6753 60.9309 36.0293 58.0882 36.0293C55.2456 36.0293 52.9412 37.6753 52.9412 39.7058C52.9412 41.7362 55.2456 43.3822 58.0882 43.3822Z" fill="#FFCC80"/>
<path fill-rule="evenodd" clip-rule="evenodd" d="M41.9117 43.3822C44.7543 43.3822 47.0588 41.7362 47.0588 39.7058C47.0588 37.6753 44.7543 36.0293 41.9117 36.0293C39.0691 36.0293 36.7646 37.6753 36.7646 39.7058C36.7646 41.7362 39.0691 43.3822 41.9117 43.3822Z" fill="#FFCC80"/>
<path fill-rule="evenodd" clip-rule="evenodd" d="M30.8494 36.423C30.8494 36.423 28.758 13.719 49.7501 14.1775C70.7423 14.636 68.9703 36.3372 68.9703 36.3372C68.9703 36.3372 66.3734 35.5377 66.0546 40.4937C65.2904 39.9952 64.1248 38.8294 64.1625 37.9179C63.4218 38.0098 47.5138 38.8856 46.9673 29.0686C46.343 31.7809 47.7012 34.8625 35.958 37.8819C35.6421 39.2935 34.7761 39.9997 34.13 40.3571C33.9921 35.4271 30.8494 36.423 30.8494 36.423Z" fill="#3E2723"/>
</svg>
