<svg width="100" height="100" viewBox="0 0 100 100" fill="none" xmlns="http://www.w3.org/2000/svg">
<path fill-rule="evenodd" clip-rule="evenodd" d="M50 100C77.6142 100 100 77.6142 100 50C100 22.3858 77.6142 0 50 0C22.3858 0 0 22.3858 0 50C0 77.6142 22.3858 100 50 100Z" fill="#0097A7"/>
<path fill-rule="evenodd" clip-rule="evenodd" d="M84.2295 86.4466C75.2838 94.8514 63.2432 100 50 100C36.9156 100 25.005 94.9741 16.0935 86.7475C16.1734 86.5075 16.2556 86.2666 16.3403 86.0253C17.9689 81.3825 18.3537 77.9676 26.8611 74.6365C35.3685 71.3053 62.052 71.2265 71.8353 74.2631C81.6185 77.2997 82.6316 82.0559 84.0082 85.8089C84.0842 86.0161 84.158 86.2291 84.2295 86.4466V86.4466Z" fill="#01579B"/>
<path fill-rule="evenodd" clip-rule="evenodd" d="M36.0294 72.7538C44.4256 71.8125 55.6438 71.8311 63.9705 72.7873C63.9705 72.7896 63.9705 72.7919 63.9705 72.7941C63.9705 78.0733 57.7156 89.7059 49.9999 89.7059C42.2841 89.7059 36.0293 78.0733 36.0293 72.7941C36.0293 72.7807 36.0293 72.7672 36.0294 72.7538Z" fill="#FFCC80"/>
<path fill-rule="evenodd" clip-rule="evenodd" d="M32.2259 39.2046C34.305 29.7584 41.4748 22.7942 50.0001 22.7942C58.552 22.7942 65.74 29.802 67.7936 39.2933C68.045 39.1794 68.3331 39.1326 68.6641 39.1629C70.6577 39.3455 70.632 41.9788 70.3489 45.2152C70.0695 48.409 68.8841 50.9223 67.6865 50.8857C66.1064 57.5697 61.966 62.9618 56.6177 65.4392V73.5317C56.6177 77.1853 53.6557 80.1471 50.0001 80.1471C46.3452 80.1471 43.3824 77.1903 43.3824 73.5317V65.4392C38.0241 62.9572 33.8781 57.5493 32.3047 50.8478C31.2083 50.5223 30.1819 48.1576 29.9245 45.2152C29.6414 41.9788 29.6157 39.3455 31.6093 39.1629C31.834 39.1424 32.0388 39.1573 32.2259 39.2046Z" fill="#FFCC80"/>
<path fill-rule="evenodd" clip-rule="evenodd" d="M51.5372 41.9142C51.5175 41.9126 51.4976 41.9118 51.4774 41.9118H48.5227C48.5026 41.9118 48.4827 41.9126 48.4629 41.9143C48.0056 39.4187 45.2468 37.5 41.9118 37.5C38.257 37.5 35.2942 39.8044 35.2942 42.6471C35.2942 45.4897 38.257 47.7941 41.9118 47.7941C45.2468 47.7941 48.0055 45.8754 48.4629 43.3799C48.4826 43.3815 48.5026 43.3824 48.5227 43.3824H51.4774C51.4975 43.3824 51.5175 43.3815 51.5372 43.3799C51.9946 45.8754 54.7533 47.7941 58.0883 47.7941C61.7431 47.7941 64.706 45.4897 64.706 42.6471C64.706 39.8044 61.7431 37.5 58.0883 37.5C54.7534 37.5 51.9946 39.4187 51.5372 41.9142Z" fill="#4E342E"/>
<path fill-rule="evenodd" clip-rule="evenodd" d="M41.9117 46.3236C44.7543 46.3236 47.0588 44.6776 47.0588 42.6472C47.0588 40.6167 44.7543 38.9707 41.9117 38.9707C39.0691 38.9707 36.7646 40.6167 36.7646 42.6472C36.7646 44.6776 39.0691 46.3236 41.9117 46.3236Z" fill="#26C6DA"/>
<path fill-rule="evenodd" clip-rule="evenodd" d="M58.0882 46.3236C60.9309 46.3236 63.2353 44.6776 63.2353 42.6472C63.2353 40.6167 60.9309 38.9707 58.0882 38.9707C55.2456 38.9707 52.9412 40.6167 52.9412 42.6472C52.9412 44.6776 55.2456 46.3236 58.0882 46.3236Z" fill="#26C6DA"/>
<path fill-rule="evenodd" clip-rule="evenodd" d="M30.8492 39.3642C30.8492 39.3642 28.7579 16.6602 49.75 17.1187C70.7422 17.5771 68.9702 39.2784 68.9702 39.2784C68.9702 39.2784 66.2692 38.4634 66.2392 44.8274C65.475 44.3289 64.1247 41.7706 64.1624 40.859C63.4217 40.9509 46.6193 41.0577 44.0867 31.2282C43.4623 33.9405 42.358 37.9234 35.9579 40.8231C35.6419 42.2346 34.8792 44.5078 34.2331 44.8653C34.1631 38.2618 30.8492 39.3642 30.8492 39.3642Z" fill="#4E342E"/>
</svg>
