<svg width="100" height="100" viewBox="0 0 100 100" fill="none" xmlns="http://www.w3.org/2000/svg">
<path fill-rule="evenodd" clip-rule="evenodd" d="M50 100C77.6142 100 100 77.6142 100 50C100 22.3858 77.6142 0 50 0C22.3858 0 0 22.3858 0 50C0 77.6142 22.3858 100 50 100Z" fill="#26A69A"/>
<path fill-rule="evenodd" clip-rule="evenodd" d="M84.2295 86.4466C75.2838 94.8514 63.2432 100 50 100C36.9156 100 25.005 94.9741 16.0935 86.7475C16.1734 86.5075 16.2556 86.2666 16.3403 86.0253C17.9689 81.3825 18.3537 77.9676 26.8611 74.6365C35.3685 71.3053 62.052 71.2265 71.8353 74.2631C81.6185 77.2997 82.6316 82.0559 84.0082 85.8089C84.0842 86.0161 84.158 86.2291 84.2295 86.4466V86.4466Z" fill="#00E5FF"/>
<path fill-rule="evenodd" clip-rule="evenodd" d="M33.0955 73.1408C42.5861 71.6772 57.5301 71.7056 66.9027 73.1829C66.6079 79.5004 59.1531 84.5588 50 84.5588C40.8266 84.5588 33.3591 79.4779 33.0955 73.1408H33.0955Z" fill="white"/>
<path fill-rule="evenodd" clip-rule="evenodd" d="M36.0294 72.7538C44.4256 71.8125 55.6438 71.8311 63.9705 72.7873C63.9705 72.7896 63.9705 72.7919 63.9705 72.7941C63.9705 78.0733 57.7156 82.353 49.9999 82.353C42.2841 82.353 36.0293 78.0733 36.0293 72.7941C36.0293 72.7807 36.0293 72.7672 36.0294 72.7538Z" fill="#FFB74D"/>
<path fill-rule="evenodd" clip-rule="evenodd" d="M32.2259 39.2046C34.305 29.7584 41.4748 22.7942 50.0001 22.7942C58.552 22.7942 65.74 29.802 67.7936 39.2933C68.045 39.1794 68.3331 39.1326 68.6641 39.1629C70.6577 39.3455 70.632 41.9788 70.3489 45.2152C70.0695 48.409 68.8841 50.9223 67.6865 50.8857C66.1064 57.5697 61.966 62.9618 56.6177 65.4392V73.5317C56.6177 77.1853 53.6557 80.1471 50.0001 80.1471C46.3452 80.1471 43.3824 77.1903 43.3824 73.5317V65.4392C38.0241 62.9572 33.8781 57.5493 32.3047 50.8478C31.2083 50.5223 30.1819 48.1576 29.9245 45.2152C29.6414 41.9788 29.6157 39.3455 31.6093 39.1629C31.834 39.1424 32.0388 39.1573 32.2259 39.2046Z" fill="#FFB74D"/>
<path fill-rule="evenodd" clip-rule="evenodd" d="M51.5372 41.9142C51.5175 41.9126 51.4976 41.9118 51.4774 41.9118H48.5227C48.5026 41.9118 48.4827 41.9126 48.4629 41.9143C48.0056 39.4187 45.2468 37.5 41.9118 37.5C38.257 37.5 35.2942 39.8044 35.2942 42.6471C35.2942 45.4897 38.257 47.7941 41.9118 47.7941C45.2468 47.7941 48.0055 45.8754 48.4629 43.3799C48.4826 43.3815 48.5026 43.3824 48.5227 43.3824H51.4774C51.4975 43.3824 51.5175 43.3815 51.5372 43.3799C51.9946 45.8754 54.7533 47.7941 58.0883 47.7941C61.7431 47.7941 64.706 45.4897 64.706 42.6471C64.706 39.8044 61.7431 37.5 58.0883 37.5C54.7534 37.5 51.9946 39.4187 51.5372 41.9142Z" fill="white"/>
<path fill-rule="evenodd" clip-rule="evenodd" d="M41.9117 46.3236C44.7543 46.3236 47.0588 44.6776 47.0588 42.6472C47.0588 40.6167 44.7543 38.9707 41.9117 38.9707C39.0691 38.9707 36.7646 40.6167 36.7646 42.6472C36.7646 44.6776 39.0691 46.3236 41.9117 46.3236Z" fill="#37474F"/>
<path fill-rule="evenodd" clip-rule="evenodd" d="M58.0882 46.3236C60.9309 46.3236 63.2353 44.6776 63.2353 42.6472C63.2353 40.6167 60.9309 38.9707 58.0882 38.9707C55.2456 38.9707 52.9412 40.6167 52.9412 42.6472C52.9412 44.6776 55.2456 46.3236 58.0882 46.3236Z" fill="#37474F"/>
<path fill-rule="evenodd" clip-rule="evenodd" d="M36.9084 21.2502C29.7736 27.6866 30.8492 39.364 30.8492 39.364C30.8492 39.364 34.1631 38.2616 34.2331 44.8651C34.8792 44.5077 35.6419 42.2345 35.9579 40.823C42.358 37.9233 43.4623 33.9404 44.0867 31.2281C46.6193 41.0576 63.4217 40.9508 64.1624 40.8589C64.1247 41.7704 65.475 44.3287 66.2392 44.8272C66.2692 38.4632 68.9702 39.2782 68.9702 39.2782C68.9702 39.2782 70.0532 26.0143 60.495 20.0068C60.6517 19.5855 61.544 17.8155 65.5249 17.612C59.6857 14.703 54.841 17.5727 54.841 17.5727C54.841 17.5727 56.936 12.7112 61.7309 12.5082C54.7987 11.79 50.1243 13.3639 46.9293 16.9739C48.4952 10.6124 51.3262 10.1691 54.1659 8.57324C42.6464 10.8805 37.9333 19.1528 36.9084 21.2502Z" fill="#162827"/>
</svg>
