<svg width="134" height="108" viewBox="0 0 134 108" fill="none" xmlns="http://www.w3.org/2000/svg">
<g opacity="0.3">
<path fill-rule="evenodd" clip-rule="evenodd" d="M11.2921 0H122.708C128.944 0 134 5.0699 134 11.3239V96.631C134 102.885 128.944 107.955 122.708 107.955H11.2921C5.05566 107.955 0 102.885 0 96.631V11.3239C0 5.0699 5.05566 0 11.2921 0ZM14.3034 7.5493C10.5615 7.5493 7.52809 10.5912 7.52809 14.3437V93.6113C7.52809 97.3637 10.5615 100.406 14.3034 100.406H119.697C123.439 100.406 126.472 97.3637 126.472 93.6113V14.3437C126.472 10.5912 123.439 7.5493 119.697 7.5493H14.3034Z" fill="white"/>
<path fill-rule="evenodd" clip-rule="evenodd" d="M51.331 65.3254L40.1804 54.6933L18.8202 75.5844V83.9445C18.8202 86.7817 21.2776 89.0817 24.309 89.0817H109.691C112.722 89.0817 115.18 86.7817 115.18 83.9445V57.521L87.0288 29.9579L51.331 65.3254Z" fill="white"/>
<path fill-rule="evenodd" clip-rule="evenodd" d="M31.6179 44.5408C38.6859 44.5408 44.4157 38.795 44.4157 31.707C44.4157 24.6191 38.6859 18.8732 31.6179 18.8732C24.5499 18.8732 18.8202 24.6191 18.8202 31.707C18.8202 38.795 24.5499 44.5408 31.6179 44.5408Z" fill="white"/>
</g>
</svg>
