<svg width="360" height="291" viewBox="0 0 360 291" fill="none" xmlns="http://www.w3.org/2000/svg">
<g opacity="0.3">
<path fill-rule="evenodd" clip-rule="evenodd" d="M30.3371 0H329.663C346.418 0 360 13.6558 360 30.5011V260.276C360 277.121 346.418 290.777 329.663 290.777H30.3371C13.5824 290.777 0 277.121 0 260.276V30.5011C0 13.6558 13.5824 0 30.3371 0ZM38.427 20.334C28.3741 20.334 20.2247 28.5275 20.2247 38.6347V252.142C20.2247 262.249 28.3741 270.443 38.427 270.443H321.573C331.626 270.443 339.775 262.249 339.775 252.142V38.6347C339.775 28.5275 331.626 20.334 321.573 20.334H38.427Z" fill="white"/>
<path fill-rule="evenodd" clip-rule="evenodd" d="M137.904 175.954L107.947 147.317L50.5618 203.587V226.105C50.5618 233.747 57.1638 239.942 65.3079 239.942H294.692C302.836 239.942 309.438 233.747 309.438 226.105V154.933L233.809 80.6918L137.904 175.954Z" fill="white"/>
<path fill-rule="evenodd" clip-rule="evenodd" d="M84.9438 119.971C103.932 119.971 119.326 104.494 119.326 85.403C119.326 66.3117 103.932 50.8351 84.9438 50.8351C65.9551 50.8351 50.5618 66.3117 50.5618 85.403C50.5618 104.494 65.9551 119.971 84.9438 119.971Z" fill="white"/>
</g>
</svg>
