<svg width="82" height="34" viewBox="0 0 82 34" fill="none" xmlns="http://www.w3.org/2000/svg">
<path d="M10.68 33.48C7.16 33.48 4.65333 32.56 3.16 30.72C1.69333 28.8533 0.96 26.1733 0.96 22.68V11C0.96 7.42667 1.69333 4.73333 3.16 2.92C4.62667 1.08 7.13333 0.159998 10.68 0.159998C14.0667 0.159998 16.4667 0.973332 17.88 2.6C19.2933 4.22666 20 6.53333 20 9.52V12.32H13V9.08C13 7.82666 12.8667 6.86667 12.6 6.2C12.3333 5.53333 11.6933 5.2 10.68 5.2C9.66667 5.2 9 5.56 8.68 6.28C8.36 6.97333 8.2 7.94667 8.2 9.2V24.44C8.2 25.72 8.36 26.7067 8.68 27.4C9.02667 28.0667 9.69333 28.4 10.68 28.4C11.6667 28.4 12.2933 28.0667 12.56 27.4C12.8533 26.7067 13 25.72 13 24.44V21.04H20V23.84C20 26.88 19.2933 29.2533 17.88 30.96C16.4667 32.64 14.0667 33.48 10.68 33.48ZM23.9391 0.599998H28.9791L35.6191 16.2V0.599998H41.5391V33H36.6991L30.0591 16.2V33H23.9391V0.599998ZM54.9609 33.48C51.8676 33.48 49.5609 32.6667 48.0409 31.04C46.5476 29.3867 45.7476 26.7733 45.6409 23.2L51.7609 22.28C51.7876 24.3333 52.0276 25.8133 52.4809 26.72C52.9609 27.6 53.6676 28.04 54.6009 28.04C55.8009 28.04 56.4009 27.2533 56.4009 25.68C56.4009 24.4267 56.1076 23.3467 55.5209 22.44C54.9609 21.5333 54.0676 20.56 52.8409 19.52L50.0409 17.08C48.6543 15.9067 47.5743 14.6667 46.8009 13.36C46.0543 12.0267 45.6809 10.4533 45.6809 8.64C45.6809 5.92 46.4809 3.82667 48.0809 2.36C49.7076 0.893332 51.9343 0.159998 54.7609 0.159998C57.8276 0.159998 59.9076 1.05333 61.0009 2.84C62.1209 4.62667 62.7209 6.8 62.8009 9.36L56.6409 10.12C56.5876 8.44 56.4276 7.24 56.1609 6.52C55.9209 5.77333 55.3743 5.4 54.5209 5.4C53.9076 5.4 53.4276 5.66666 53.0809 6.2C52.7609 6.70667 52.6009 7.28 52.6009 7.92C52.6009 9.01333 52.8409 9.93333 53.3209 10.68C53.8276 11.4267 54.6276 12.28 55.7209 13.24L58.4009 15.6C60.0009 16.96 61.2409 18.4 62.1209 19.92C63.0009 21.44 63.4409 23.24 63.4409 25.32C63.4409 26.84 63.0809 28.2267 62.3609 29.48C61.6676 30.7067 60.6809 31.68 59.4009 32.4C58.1209 33.12 56.6409 33.48 54.9609 33.48ZM69.8278 5.92H64.9478V0.599998H81.8678V5.92H77.0278V33H69.8278V5.92Z" fill="white"/>
</svg>
